<!-- Generated by IcoMoon.io -->
<svg version="1.1" xmlns="http://www.w3.org/2000/svg" width="768" height="768" viewBox="0 0 768 768">
<title>menu</title>
<g id="icomoon-ignore">
</g>
<path d="M64 384c0-17.674 14.327-32 32-32h576c17.674 0 32 14.327 32 32s-14.327 32-32 32h-576c-17.673 0-32-14.327-32-32z"></path>
<path d="M64 192c0-17.673 14.327-32 32-32h576c17.674 0 32 14.327 32 32s-14.327 32-32 32h-576c-17.673 0-32-14.327-32-32z"></path>
<path d="M64 576c0-17.674 14.327-32 32-32h576c17.674 0 32 14.327 32 32s-14.327 32-32 32h-576c-17.673 0-32-14.327-32-32z"></path>
</svg>
